<?xml version="1.0" encoding="utf-8"?>
<!-- Generator: Adobe Illustrator 24.2.2, SVG Export Plug-In . SVG Version: 6.00 Build 0)  -->
<svg version="1.1" xmlns="http://www.w3.org/2000/svg" xmlns:xlink="http://www.w3.org/1999/xlink" x="0px" y="0px"
	 viewBox="0 0 515.9 411.8" style="enable-background:new 0 0 515.9 411.8;" xml:space="preserve">
<style type="text/css">
	.st0{opacity:0.6;}
	.st1{stroke:url(#SVGID_1_);stroke-width:2;stroke-miterlimit:10;}
	.st2{stroke:url(#SVGID_2_);stroke-width:2;stroke-miterlimit:10;}
	.st3{stroke:url(#SVGID_3_);stroke-width:2;stroke-miterlimit:10;}
	.st4{stroke:url(#SVGID_4_);stroke-width:2;stroke-miterlimit:10;}
	.st5{stroke:url(#SVGID_5_);stroke-width:2;stroke-miterlimit:10;}
	.st6{stroke:url(#SVGID_6_);stroke-width:2;stroke-miterlimit:10;}
	.st7{stroke:url(#SVGID_7_);stroke-width:2;stroke-miterlimit:10;}
	.st8{stroke:url(#SVGID_8_);stroke-width:2;stroke-miterlimit:10;}
	.st9{stroke:url(#SVGID_9_);stroke-width:2;stroke-miterlimit:10;}
	.st10{stroke:url(#SVGID_10_);stroke-width:2;stroke-miterlimit:10;}
	.st11{stroke:url(#SVGID_11_);stroke-width:2;stroke-miterlimit:10;}
	.st12{stroke:url(#SVGID_12_);stroke-width:2;stroke-miterlimit:10;}
	.st13{stroke:url(#SVGID_13_);stroke-width:2;stroke-miterlimit:10;}
	.st14{stroke:url(#SVGID_14_);stroke-width:2;stroke-miterlimit:10;}
	.st15{stroke:url(#SVGID_15_);stroke-width:2;stroke-miterlimit:10;}
	.st16{stroke:url(#SVGID_16_);stroke-width:2;stroke-miterlimit:10;}
	.st17{fill:url(#SVGID_17_);}
	.st18{fill:url(#SVGID_18_);}
	.st19{fill:url(#SVGID_19_);}
	.st20{opacity:0.7;}
	.st21{stroke:#000000;stroke-width:2;stroke-miterlimit:10;}
</style>
<g id="Layer_2">
	<g class="st0">
		<radialGradient id="SVGID_1_" cx="397.4203" cy="264.6449" r="10.6282" gradientUnits="userSpaceOnUse">
			<stop  offset="0" style="stop-color:#F3E982"/>
			<stop  offset="1" style="stop-color:#8A5E1D"/>
		</radialGradient>
		<path class="st1" d="M406.4,266.2c-0.1,0-0.1,0-0.2,0c-0.8,0.8-1.9,1.4-3.4,1.4c-6.4,0-6.4-10,0-10c0.1,0,0.1,0,0.2,0
			c0.1-0.1,0.2-0.2,0.3-0.3c-2.5-1.5-5.8-1.8-8.6-0.7c-5,2-6.8,6-5.2,11.8c-1.2,0.1-2.5,0.1-2.6,1.6c0,0.7,0.4,1.3,1.2,1.4
			c1.4,0.3,1.9-0.6,2.3-1.7c5.2,4.2,9.8,4.7,13.9,1.6c1.8-1.4,2.9-3.3,3.3-5.3C407.3,266.2,406.9,266.2,406.4,266.2z"/>
		<radialGradient id="SVGID_2_" cx="129.0264" cy="77.807" r="10.1199" gradientUnits="userSpaceOnUse">
			<stop  offset="0" style="stop-color:#F3E982"/>
			<stop  offset="1" style="stop-color:#8A5E1D"/>
		</radialGradient>
		<path class="st2" d="M129,86.5c-5.2,0-9.5-3.9-9.5-8.6c0-4.8,4.4-8.8,9.6-8.8c5.1,0,9.5,4,9.5,8.7C138.6,82.7,134.4,86.5,129,86.5
			z"/>
		<radialGradient id="SVGID_3_" cx="389.125" cy="305.9932" r="8.6801" gradientUnits="userSpaceOnUse">
			<stop  offset="0" style="stop-color:#F3E982"/>
			<stop  offset="1" style="stop-color:#8A5E1D"/>
		</radialGradient>
		<path class="st3" d="M388.9,298.5c-2,0-3.9,0.7-5.3,1.9c0,0,0,0,0,0c0.4-0.1,0.8-0.1,1.2-0.1c6.4,0,6.4,10,0,10
			c-1,0-1.8-0.2-2.5-0.6c-0.1,0-0.3,0.1-0.5,0.1c1.4,2.3,4.1,3.8,7.2,3.8c4.2,0,7.8-3.5,7.9-7.5C397,301.8,393.4,298.5,388.9,298.5z
			"/>
		<radialGradient id="SVGID_4_" cx="149.7168" cy="39.0378" r="6.8191" gradientUnits="userSpaceOnUse">
			<stop  offset="0" style="stop-color:#F3E982"/>
			<stop  offset="1" style="stop-color:#8A5E1D"/>
		</radialGradient>
		<path class="st4" d="M155.8,38.9c0,3-2.8,5.7-6.1,5.7c-3.1,0-6.1-2.8-6.1-5.6c0-2.9,2.8-5.5,6.1-5.5
			C153,33.4,155.8,35.9,155.8,38.9z"/>
		<radialGradient id="SVGID_5_" cx="190.3052" cy="47.9672" r="6.1371" gradientUnits="userSpaceOnUse">
			<stop  offset="0" style="stop-color:#F3E982"/>
			<stop  offset="1" style="stop-color:#8A5E1D"/>
		</radialGradient>
		<path class="st5" d="M195.6,48c0,3-2.2,5.1-5.3,5c-2.9,0-5.3-2.3-5.2-5.1c0-2.8,2.4-5,5.4-4.9C193.4,43,195.6,45.1,195.6,48z"/>
		<radialGradient id="SVGID_6_" cx="162.9186" cy="64.5737" r="6.1406" gradientUnits="userSpaceOnUse">
			<stop  offset="0" style="stop-color:#F3E982"/>
			<stop  offset="1" style="stop-color:#8A5E1D"/>
		</radialGradient>
		<path class="st6" d="M168.3,64.5c0,2.7-2.4,4.9-5.3,4.9c-2.8,0-5.4-2.4-5.4-4.9c0-2.5,2.5-4.8,5.3-4.9
			C165.6,59.6,168.3,62,168.3,64.5z"/>
		<radialGradient id="SVGID_7_" cx="415.7308" cy="268.7393" r="6.1054" gradientUnits="userSpaceOnUse">
			<stop  offset="0" style="stop-color:#F3E982"/>
			<stop  offset="1" style="stop-color:#8A5E1D"/>
		</radialGradient>
		<path class="st7" d="M421,268.8c-0.1,2.7-2.5,4.9-5.4,4.8c-2.8-0.1-5.3-2.4-5.2-4.9c0-2.7,2.6-5,5.6-4.9
			C418.8,263.9,421.1,266.2,421,268.8z"/>
		<radialGradient id="SVGID_8_" cx="379.3114" cy="291.0645" r="5.4206" gradientUnits="userSpaceOnUse">
			<stop  offset="0" style="stop-color:#F3E982"/>
			<stop  offset="1" style="stop-color:#8A5E1D"/>
		</radialGradient>
		<path class="st8" d="M379.4,295.3c-2.6,0-4.6-1.8-4.7-4.1c0-2.5,2.1-4.4,4.7-4.4c2.4,0,4.5,2,4.5,4.3
			C383.9,293.4,381.8,295.3,379.4,295.3z"/>
		<radialGradient id="SVGID_9_" cx="403.7801" cy="250.4181" r="3.6573" gradientUnits="userSpaceOnUse">
			<stop  offset="0" style="stop-color:#F3E982"/>
			<stop  offset="1" style="stop-color:#8A5E1D"/>
		</radialGradient>
		<path class="st9" d="M403.9,247.9c1.3,0,2.7,1.4,2.7,2.6c0,1.3-1.5,2.5-3,2.4c-1.4-0.1-2.7-1.4-2.6-2.6
			C401.1,249,402.5,247.9,403.9,247.9z"/>
		<radialGradient id="SVGID_10_" cx="403.7766" cy="276.463" r="3.3936" gradientUnits="userSpaceOnUse">
			<stop  offset="0" style="stop-color:#F3E982"/>
			<stop  offset="1" style="stop-color:#8A5E1D"/>
		</radialGradient>
		<path class="st10" d="M401.7,275.2c0.5-0.6,1.2-1,2.1-1c1.3,0,2.5,1.1,2.5,2.3c0,1.2-1.2,2.3-2.5,2.3c-1.3,0-2.5-1.1-2.5-2.3
			C401.3,276,401.4,275.6,401.7,275.2"/>
		<radialGradient id="SVGID_11_" cx="147.4281" cy="55.0235" r="3.39" gradientUnits="userSpaceOnUse">
			<stop  offset="0" style="stop-color:#F3E982"/>
			<stop  offset="1" style="stop-color:#8A5E1D"/>
		</radialGradient>
		<path class="st11" d="M147.4,52.7c1.3,0,2.5,1.1,2.6,2.2c0,1.2-1.2,2.3-2.5,2.3c-1.3,0-2.5-1.1-2.5-2.3
			C144.9,53.7,145.9,52.8,147.4,52.7z"/>
		<radialGradient id="SVGID_12_" cx="192.6808" cy="28.2959" r="3.3772" gradientUnits="userSpaceOnUse">
			<stop  offset="0" style="stop-color:#F3E982"/>
			<stop  offset="1" style="stop-color:#8A5E1D"/>
		</radialGradient>
		<path class="st12" d="M190.2,28.4c0-1.2,1.2-2.3,2.5-2.3c1.3,0,2.5,1.1,2.5,2.3c0,1.2-1,2.2-2.4,2.2
			C191.5,30.6,190.2,29.6,190.2,28.4z"/>
		<radialGradient id="SVGID_13_" cx="178.921" cy="55.0241" r="3.3775" gradientUnits="userSpaceOnUse">
			<stop  offset="0" style="stop-color:#F3E982"/>
			<stop  offset="1" style="stop-color:#8A5E1D"/>
		</radialGradient>
		<path class="st13" d="M178.9,57.3c-1.3,0-2.5-1.2-2.4-2.4c0-1.3,1.1-2.2,2.6-2.2c1.3,0.1,2.4,1.1,2.4,2.2
			C181.4,56.2,180.2,57.3,178.9,57.3z"/>
		<radialGradient id="SVGID_14_" cx="139.9054" cy="87.0911" r="3.3892" gradientUnits="userSpaceOnUse">
			<stop  offset="0" style="stop-color:#F3E982"/>
			<stop  offset="1" style="stop-color:#8A5E1D"/>
		</radialGradient>
		<path class="st14" d="M139.8,89.4c-1.3,0-2.4-1.2-2.4-2.4c0.1-1.3,1.2-2.2,2.6-2.2c1.3,0,2.5,1.2,2.4,2.4
			C142.3,88.3,141.1,89.4,139.8,89.4z"/>
		<radialGradient id="SVGID_15_" cx="371.3428" cy="308.314" r="3.3925" gradientUnits="userSpaceOnUse">
			<stop  offset="0" style="stop-color:#F3E982"/>
			<stop  offset="1" style="stop-color:#8A5E1D"/>
		</radialGradient>
		<path class="st15" d="M371.4,310.6c-1.2,0-2.5-1.2-2.6-2.3c0-1.2,1.1-2.3,2.5-2.3c1.3,0,2.5,1,2.5,2.2
			C373.9,309.5,372.7,310.6,371.4,310.6z"/>
		<radialGradient id="SVGID_16_" cx="365.7814" cy="296.1618" r="3.3771" gradientUnits="userSpaceOnUse">
			<stop  offset="0" style="stop-color:#F3E982"/>
			<stop  offset="1" style="stop-color:#8A5E1D"/>
		</radialGradient>
		<path class="st16" d="M368.3,296.1c0,1.2-1.1,2.3-2.5,2.3c-1.3,0.1-2.5-1-2.5-2.3c0-1.2,1-2.2,2.3-2.2
			C366.9,293.8,368.2,294.9,368.3,296.1z"/>
	</g>
</g>
<g id="Layer_1">
	<g>
		<radialGradient id="SVGID_17_" cx="408.2823" cy="241.1311" r="84.6429" gradientUnits="userSpaceOnUse">
			<stop  offset="0" style="stop-color:#F3E982"/>
			<stop  offset="1" style="stop-color:#8A5E1D"/>
		</radialGradient>
		<path class="st17" d="M504.3,210.5c-7.1-10.5-18.4-10.4-26.1-1.4c-6.3-26.5-35.5-17.6-32.2,7.7c-11.1-14.7-28.5-19.4-45.9-14.7
			c-16.2,2.3-62.2,28.4-61.8-2.9c-1-5.3,10-26.5,0.7-24.1c-2,0.1-3.4,2.7-5.5,1.5c-3.9-2.3-7.5-1.1-11,1
			c-20.5,9.7-18.3,60.5,6.7,29.4c1.7,0.2,1,2.4,1.5,3.7c14.2,24,49.7,2.7,70.3-0.1c46.2-17.3,72.1,72.9,45.9,70.6
			c-5.5-2.4-7.5-18.3,0.6-17.7c1.2,0.4,1.5,1.4,1.6,2.6c1,3.8-4,3.2-4.2,6.3c-0.1,4.1,5.5,4.6,7.6,1.8c2.9-3.7,3.3-10.3,0.6-14.1
			c-11.2-13.5-21.9,9.1-16.5,19.1c1.8,8.7,11.3,8.1,10.6,13.9c-0.3,3.1-2.6,4.7-2.2,5.3c0.5,0.7,2.9-1.3,5.3-0.3
			c2.8,1.3,1.8,3,1.6,7c-0.3,7,3.3-6,7.2-4.6c2.5,0.3,3.6,4.2,4.4,3.9c0.5-1.4,0.3-6.3,4.1-6.4c13.5,4,18.3-11.3,15.8-21.8
			c-3.6-14.4-21.3-4-14.4,7.9c1.3,2,4.3,2.7,6,0.7c3.1-3.2-5.7-5.7-0.8-8.8c7.3,0.6,4.5,12.3,0,14.2c-12.2,3.5-10.2-16.4-3.9-21.9
			c9.5-10.4,25.1-12,32.8-24.5C509.2,234.5,509.7,220.6,504.3,210.5z M323.3,205.8c-3.4,4.5-6.3,1.1-5.7-3.3
			c1.4-7.5,3.8-16.4,10.8-20.4C337,178.7,327,204,323.3,205.8z M473.5,255.8c-6.1,2.9-11.6,16.2-10.5,3.7c0.8-17.7-15.8-34-9.4-51.7
			c2.4-5.8,8.6-9.2,14.4-3.3c7.7,6.2,1.6,27.6-5.5,17.3c-2.9-5,3.6-3.6,4.4-7.2c-2.4-15-16.8,0.8-8.5,12c8.7,12.3,16.1-4.5,16.3,1.9
			c0.9,7.2,8.5,14.8,15.6,9.1c8.2-4.2,3.9-26.6-5.2-17.4c-3,5.7,3.6,4.6,3.9,7.8c-0.1,4.7-5.6,5.6-7.7,1.6
			c-7-11.6,9.1-27.7,17.1-12.8C507.6,237,488.1,247.1,473.5,255.8z"/>
		<radialGradient id="SVGID_18_" cx="112.7529" cy="174.0909" r="88.984" gradientUnits="userSpaceOnUse">
			<stop  offset="0" style="stop-color:#F3E982"/>
			<stop  offset="0.873" style="stop-color:#8A5E1D"/>
		</radialGradient>
		<path class="st18" d="M214.6,113.3c7.2-1,1.4-22.5-16.3,5.4c-10.6,15.2-22.3,64.7-29.2,87.5c-2.8-28.1-2.1-57,0.7-85.2
			c0.1-3.3,4.2-14.4-2.3-12.5c-10.7,5.3-8.7,20-13.1,29.7c-11.5,33.6-24.5,92.4-68.3,93.4c-27.9,1.3-50-17-76,5.3
			c-3,1.9-2.9,5.7-0.1,6.6c52.1-30.9,102.2,61.2,147.9-96.9c1.6,8.5-4.6,96.5,11.5,83.8C177,207.6,191.7,122.1,214.6,113.3z"/>
		<radialGradient id="SVGID_19_" cx="244.5862" cy="169.4996" r="62.7729" gradientUnits="userSpaceOnUse">
			<stop  offset="0" style="stop-color:#F3E982"/>
			<stop  offset="1" style="stop-color:#8A5E1D"/>
		</radialGradient>
		<path class="st19" d="M296.9,160.1c2.6-2.1,8.6-8.9,11.1-14.2c2.5-5.4,2.4-10.9,2.4-13.4c0-1.2,0-2.8-0.4-4.8
			c-0.5-2.9-1.4-8.5-5.9-12.7c-3.1-2.9-7.2-4.6-12.1-5c-10.1-0.8-18.3,3.5-25.4,10.4c-1.4,1.3-2.3,3.4-4.7,3.4
			c-2.8,0-4.5,1.5-5.8,3.6c-2.5,4.1-4.6,8.3-6.2,12.8c-3.7,10.9-6.8,22.1-8.4,33.5c-0.1,0.4-0.2,1.5-0.9,2.1c-0.9,0.6-1.8,0-3.5,0
			c-1.3,0-2.2,0.4-3.7,1.1c-11.8,5.4-14.7,16.5-14.7,16.5c-1.4,3.4-1.7,7.1-2.2,10.7c-0.3,1.9-4,5.7-5.4,5.7
			c-1.4-0.1-2.9-3.4-2.9-6.2c0-0.4,0-0.8,0.1-1.2c0.5-2.9,1.1-5.7,1.6-8.6c0.7-4.5,2.3-8.7,3.5-13c0.4-1.6,0.6-3.2-0.7-4.4
			c-1.1-1-2.6-0.8-3.8-0.1c-2,1.1-2.7,1.9-4.2,1.7c-1-0.1-1.2-0.8-2.2-1.3c-3.1-1.7-7.7,0.8-9.4,1.8c-1.2,0.7-2.9,1.8-5,4
			c-1.6,1.7-4.8,5.2-6.8,11.3c-2.3,6.5-3.6,13.2-0.6,19.9c1.2,2.8,3.1,4.2,6.1,4.1c4.9-0.2,7.9-3.4,10.7-6.8c0.7-0.9,1-2.6,2.2-2.5
			c1.3,0.2,0.9,1.9,1.2,3c1.3,5.1,4.7,7.4,9.3,6.3c2.3-0.5,4-2,5.3-3.9c1.1-1.7,1.9-2.2,2.9,0c2.5,5.6,8.4,4.6,11.7,1.9
			c2.4-2,4.4-4.3,6.3-6.7c0.3-0.4,0.4-1.3,1.1-1.2c0.8,0.1,0.8,1,0.9,1.6c0.8,2.6,1.8,5.1,3.8,6.9c2.6,2.3,5.6,1.9,8.4,0.3
			c2.6-1.5,5-3.4,5.4-6.7c0.1-0.9-0.2-1.7-1-2.2c-0.8-0.5-1.6-0.2-2.3,0.3c-0.7,0.4-1.4,0.9-2,1.4c-1.6,1.2-2.6,0.5-3.3-1
			c-0.3-0.7-0.5-1.4-0.6-2.1c-1.3-8.6-0.3-16.9,3.4-24.8c5.5-11.9,9.7-24.3,11.5-37.3c0.6-4.2,1.5-8,3.7-11.7
			c3.2-5.4,7.4-9.8,12.8-13c0.4-0.3,0.9-0.5,1.4-0.2c0.6,0.4,0.4,1,0.2,1.6c-2.3,8.4-4.5,16.8-6.5,25.3c-2.9,12.3-6.2,24.5-9.1,36.8
			c-2.5,10.8-5.6,21.5-6.9,32.7c-1,8.2,3.8,12.5,9.9,13.1c7.4,0.8,14.3-0.8,20.6-5c7.6-5.1,13.5-11.6,16.8-20.2
			c2.7-7,3.2-14.2,2.7-21.8c-0.5-8-3.9-14-10.2-18.4C295,162.1,295.3,161.4,296.9,160.1z M202.5,185.3c-1,4.5-1.5,9.2-3.6,13.4
			c-1.5,3.2-3.2,6.3-5.9,8.5c-0.8,0.7-1.7,1.9-3,1.2c-1.2-0.6-1.4-2-1.4-3.2c0-0.5,0-1,0-1.5c1.2-7.8,3.1-15.3,9.7-20.6
			c0.9-0.7,1.7-1.5,2.9-0.8C202.4,183,202.8,184.1,202.5,185.3z M239,185.4c-0.1,8.2-2.2,15.6-8.1,21.7c-0.9,0.9-1.7,2.1-3.1,1.6
			c-1.4-0.5-1.5-1.9-1.7-3.1c-0.4-4.1,0.9-7.9,2.4-11.6c1.6-3.9,3.5-7.7,7.1-10.3c0.8-0.5,1.3-1.8,2.5-1.3
			C239.5,182.9,238.9,184.3,239,185.4z M258.2,143.9c-1,4.4-2.5,9.6-5,15.9c-1.3,3.2-4.3,10.5-5.4,10.2c-0.7-0.2-0.3-3.3,0-6.3
			c0.7-6.5,1.6-13.7,5.8-22.2c1.5-3,4.7-8.9,5.8-8.5C260.6,133.4,259.2,139.7,258.2,143.9z M292,209.2c-3.3,4.7-7.1,8.4-12.1,10.5
			c-3.8,1.6-6.8,1.6-9.6,1.7c0,0-5.6,0.2-6.2-1.6c-0.2-0.5-0.3-0.9-0.3-0.9c0,0,0,0,0,0c0-0.2-0.1-0.6-0.1-1.1c0-0.2,0-0.6,0.2-1.1
			c0.3-0.8,0.7-1.5,1.4-2.3c0.2-0.2,1.1-1.4,1.9-2.1c0.7-0.6,3.2-2.3,7.2-2.8c3-0.4,5,0,7-1c0.9-0.4,1.8-0.9,1.8-0.9
			c1.5-0.8,1.5-1,2.2-1.3c2.8-1.3,5.8,0,6.1,0.2c0,0,0.4,0.2,0.7,0.5c0,0,0,0,0,0C293.1,207.7,292.5,208.5,292,209.2z M297.3,194.7
			c-0.4,2.5-0.9,5.4-2.9,6.3c-1.7,0.7-4.8,0.2-4.8,0.2c0,0,0.1,0,0.1,0c0-0.1-2.2-0.7-4.7-0.4c-1.6,0.2-2.8,0.6-3.8,1
			c-2,0.8-1.8,1.2-3.3,1.7c-1,0.4-1,0.2-5.6,0.7c-1.9,0.2-2.8,0.3-3.2-0.2c-0.4-0.5-0.1-1.3,0-1.6c1.3-5.8,2.6-11.5,3.9-17.3
			c1.6-6.6,3.3-13.2,4.9-19.9c1.9,2.3,3.8,3.4,6.9,2.4c3-1,8.2,2,10,5.3C298.5,179.8,298.6,187.1,297.3,194.7z M286.8,158.8
			c-2.2,0.9-5.6,1.5-6.6,2.1c-0.8,0.5-1.2-0.4-1.1-1.1c0.1-1.2,0.2-2.5,0.6-3.7c2.8-9,4.4-18.4,6.7-27.5c0.9-3.5,2.3-6.9,2.6-10.6
			c0.1-0.9,0.5-1.2,1.5-1c3,0.8,5.5,2.1,7.2,4.2c1.1,1.3,1.7,2.7,2.2,4.4c1.6,5,1.3,9.9,0.5,13.8c-0.4,3.8-1.5,6.6-2.4,8.3
			C295,154.2,289.4,157.7,286.8,158.8z"/>
	</g>
</g>
<g id="Layer_3" class="st20">
	<path d="M390.1,317.5c-0.3,0.1-0.7,0.1-1.1,0.1c-1.7,0-2.9-0.7-3.7-1.7c-1.7-0.1-3-1-3.7-2.2c-19.8,16.7-43.3,27.3-70.6,30.9
		c26.7-6.4,49.2-18.4,67.4-35.8c-1.2-0.8-1.8-2.1-1.9-3.5c-0.2,0.2-0.5,0.5-0.7,0.7c0.6,2.8-1,6.2-4.7,6.2c-0.7,0-1.3-0.1-1.9-0.3
		c-19.8,16.6-43.5,27-70.9,31.2c-12.2,1.9-24.6,2.4-37.2,1.2c-9.7-0.9-19.2-3.8-28.6-6.9c-20.6-6.9-39.8-17.2-57.4-31.1
		c-23.1-18.3-41.3-40.4-54.6-66.3c-1.2-2.4-2.4-4.8-3.5-7.2c-2,2.2-4.3,4-6.9,5.6c11,22.4,26.7,43.5,46.4,63.1
		c-18.8-14.2-37-35.5-50.4-61c-1,0.4-2,0.8-3,1.2c9.3,18.1,21.9,34.3,38,49.9c3.3,3.4,8,7.8,13.2,11.9c8.7,6.9,17.6,13.4,27.1,18.9
		c6,3.5,12.2,6.2,18.3,9.3c10.6,5.4,21.3,10.3,32.5,14c15.4,5.2,30.9,8.2,46.5,9.2c10.4,0.6,20.7,0.5,30.8-1
		c10.8-1.6,21.4-3.7,31.5-7.1c18.9-6.4,35.4-16.1,49.7-28.8C390.4,317.9,390.2,317.7,390.1,317.5z"/>
	<path d="M434.3,219.3c-1.4-1.2-2.8-2.2-4.1-3.1c-0.4,7.2-1.4,15.8-3.8,25.3c-2,8.1-4.5,15.1-7,21c2,0.4,3.1,2,3.5,3.7
		c0.8,1.5,0.8,3.5,0,5c-0.2,1.1-0.7,2.1-1.6,2.8c-0.6,0.7-1.5,1.3-2.7,1.4c-0.6,0.3-1.4,0.5-2.3,0.5c-1.2,0-2.2-0.4-3-0.9
		c-4.1,7.5-8.9,14.5-14.5,21.1c1.5,1.2,2,3.3,1.6,5.1c0.1,0.3,0.1,0.5,0.1,0.8c1.2,0.9,1.8,2.4,1.8,4c5.1-5.8,9.8-11.9,14-18.5
		c12.1-18.9,19-40.2,22.1-63.3c0-0.3,0.1-0.5,0.1-0.8C437.5,222.2,436,220.8,434.3,219.3z"/>
	<path d="M391.2,293.5c0.3,0,0.6,0,0.9,0.1c3.2-4.1,6.2-8.4,9.1-12.9c-0.1-0.1-0.1-0.2-0.2-0.3c-1-1-1.5-2.5-1.4-4
		c-3.7,6.2-7.8,12.1-12.4,17.6c0.5,0,0.9,0.1,1.4,0.3C389.2,293.8,390.1,293.5,391.2,293.5z"/>
	<path d="M411.3,261.4c6.7-15.2,10.6-31.3,11.9-48.1c-0.1-0.1-0.2-0.1-0.3-0.2c-0.3-0.4-0.7-0.7-1-1c-0.8-0.2-1.6-0.6-2.4-1.1
		c-1.3,16.1-4.6,31.5-10.3,46C410.6,257.9,411.3,259.7,411.3,261.4z"/>
	<path class="st21" d="M366.8,154.1c-1.2-6.9-2.7-13.7-5-20.2c-5.6-15.8-14.4-29.7-26.3-41.6c-3.7-3.7-7.7-7.2-11.8-10.3
		c-11.9-9.1-25.3-15.1-39.6-18.9c-6.2-1.6-12.5-2.5-18.9-2.9c-7.6-0.5-15.1-0.2-22.6,1c-8.8,1.3-17.4,3.7-25.6,7.1
		c-12.2,5.1-22.9,12.4-32.3,21.6c-3.2,3.1-6.2,6.3-8.9,9.8c-1.3,1.7-2.6,3.4-3.8,5.2c3.3,0.1,4.8,2.8,4.6,5.4
		c0.4-0.5,0.8-1.1,1.2-1.6c3.5-4.3,7.3-8.3,11.5-12c8.3-7.4,17.7-13.1,28-17.3c11.3-4.6,23-7,35.2-7.5c7-0.3,14,0.1,21,1.5
		c14.4,2.8,28,7.8,40.4,16c5.1,3.4,9.9,7.2,14.4,11.5c1.9,1.8,3.7,3.8,5.7,5.8c13.9,15.3,22.7,33.1,26.4,53.5
		c1.4,7.8,2,15.5,1.4,23.3c-0.4,5.9-2,11.7-3.8,17.3c-1,3.3-2.3,6.5-3.6,9.6c0.2,0,0.4,0,0.6,0c0.3,0,0.6,0,0.8,0.1
		c0.7-0.4,1.5-0.7,2.5-0.7c0.7,0,1.2,0.1,1.8,0.3c1.1-2.7,2.2-5.5,3.1-8.4c2.9-9.2,4.5-18.6,4.8-28.3
		C368.2,167,367.9,160.6,366.8,154.1z M319.5,90.9c-21.2-15.6-45-22.7-71-20.8c-25.9,1.8-47.9,12.4-66.2,29.9
		c24.8-30.4,66.5-39.8,98.4-32.2c22.4,5.3,41.4,16.5,56.5,34c12.6,14.6,20.7,31.5,23.8,50.6C354.4,127.1,340.6,106.5,319.5,90.9z"/>
</g>
</svg>
